<?xml version="1.0" encoding="UTF-8" standalone="no"?> <svg xmlns="http://www.w3.org/2000/svg" viewBox="0 0 32 32"><defs><style>.cls-1{fill:#009ae0;}.cls-2{fill:#00cf66;}.cls-3{fill:#fd3730;}.cls-4{fill:#8fa5a5;}.cls-5{fill:#2d4a60;}</style></defs><title>Profit</title><g id="Profit"><path class="cls-1" d="M5,26V19a2,2,0,0,1,2-2H9a2,2,0,0,1,2,2v7Z"/><path class="cls-2" d="M13,26V16a2,2,0,0,1,2-2h2a2,2,0,0,1,2,2V26Z"/><path class="cls-3" d="M21,26V13a2,2,0,0,1,2-2h2a2,2,0,0,1,2,2V26Z"/><rect class="cls-4" x="2" y="25" width="28" height="2" rx="1"/><path class="cls-5" d="M5,15a1,1,0,0,0,.346-.062L24.062,8.052l-.241.513a1,1,0,1,0,1.811.849L26.905,6.7a1,1,0,0,0-.481-1.33L23.707,4.094a1,1,0,0,0-.848,1.812l.547.256-18.752,6.9A1,1,0,0,0,5,15Z"/></g></svg>