<?xml version="1.0" encoding="UTF-8" standalone="no"?> <svg xmlns="http://www.w3.org/2000/svg" viewBox="0 0 32 32"><defs><style>.cls-1{fill:#2d4a60;}.cls-2{fill:#8fa5a5;}.cls-3{fill:#eaeff0;}.cls-4{fill:#00cf66;}.cls-5{fill:#009ae0;}.cls-6{fill:#fd3730;}.cls-7{fill:#fac100;}</style></defs><title>Presentation</title><g id="Presentation"><path class="cls-1" d="M22.9,27.608l-2.982-7a1,1,0,0,0-1.84.784L19.191,24H12.8l1.117-2.606a1,1,0,0,0-1.838-.788l-3,7a1,1,0,1,0,1.838.788L11.945,26h8.1l1.019,2.392a1,1,0,0,0,.92.608,1,1,0,0,0,.92-1.392Z"/><rect class="cls-2" x="3" y="3" width="26" height="19" rx="5"/><rect class="cls-3" x="5" y="5" width="22" height="15" rx="3"/><path class="cls-2" d="M23,16H9a1,1,0,0,0,0,2H23a1,1,0,0,0,0-2Z"/><path class="cls-4" d="M10,15a1,1,0,0,0,1-1V10a1,1,0,0,0-2,0v4A1,1,0,0,0,10,15Z"/><path class="cls-5" d="M14,15a1,1,0,0,0,1-1V8a1,1,0,0,0-2,0v6A1,1,0,0,0,14,15Z"/><path class="cls-6" d="M18,15a1,1,0,0,0,1-1V11a1,1,0,0,0-2,0v3A1,1,0,0,0,18,15Z"/><path class="cls-7" d="M22,15a1,1,0,0,0,1-1V9a1,1,0,0,0-2,0v5A1,1,0,0,0,22,15Z"/></g></svg>