<?xml version="1.0" encoding="UTF-8" standalone="no"?> <svg xmlns="http://www.w3.org/2000/svg" viewBox="0 0 32 32"><defs><style>.cls-1{fill:#fac100;}.cls-2{fill:#ff9500;}.cls-3{fill:#009ae0;}</style></defs><title>Idea</title><g id="Idea"><path class="cls-1" d="M12,26V24.744A3.457,3.457,0,0,0,10.646,22.1,8.5,8.5,0,0,1,15.034,7.053,9.047,9.047,0,0,1,16,7a8.5,8.5,0,0,1,5.193,15.225A3.276,3.276,0,0,0,20,24.827V26Z"/><path class="cls-2" d="M18,18H14a1,1,0,0,0,0,2h1v5a1,1,0,0,0,2,0V20h1a1,1,0,0,0,0-2Z"/><path class="cls-3" d="M15,30a3,3,0,0,1-3-3V24.744h8V27a3,3,0,0,1-3,3Z"/><path class="cls-1" d="M16,6a1,1,0,0,0,1-1V3a1,1,0,0,0-2,0V5A1,1,0,0,0,16,6Z"/><path class="cls-1" d="M28.5,14.5h-2a1,1,0,0,0,0,2h2a1,1,0,0,0,0-2Z"/><path class="cls-1" d="M5.5,14.5h-2a1,1,0,0,0,0,2h2a1,1,0,0,0,0-2Z"/><path class="cls-1" d="M23.425,9.075a.993.993,0,0,0,.707-.293l1.414-1.414a1,1,0,0,0-1.414-1.414L22.718,7.368a1,1,0,0,0,.707,1.707Z"/><path class="cls-1" d="M7.868,8.782A1,1,0,0,0,9.282,7.368L7.868,5.954A1,1,0,1,0,6.454,7.368Z"/></g></svg>