<?xml version="1.0" encoding="UTF-8" standalone="no"?> <svg xmlns="http://www.w3.org/2000/svg" viewBox="0 0 32 32"><defs><style>.cls-1{fill:#fd3730;}.cls-2{fill:#eaeff0;}.cls-3{fill:#2d4a60;}.cls-4{fill:#fac100;}</style></defs><title>Target</title><g id="Target"><circle class="cls-1" cx="16" cy="16" r="14"/><circle class="cls-2" cx="16" cy="16" r="11"/><circle class="cls-1" cx="16" cy="16" r="8"/><circle class="cls-2" cx="16" cy="16" r="5"/><path class="cls-3" d="M24.782,7.218a1,1,0,0,0-1.415,0l-8.074,8.075a1,1,0,1,0,1.414,1.414l8.075-8.074a1,1,0,0,0,0-1.415Z"/><path class="cls-4" d="M24,10a2,2,0,0,1-2-2V6.414A1.986,1.986,0,0,1,22.586,5L24.8,2.784a1.5,1.5,0,0,1,2.4.39l.54,1.081,1.082.54a1.5,1.5,0,0,1,.389,2.4L27,9.414A1.986,1.986,0,0,1,25.586,10Z"/></g></svg>